<svg width="40" height="40" viewBox="0 0 40 40" fill="none" xmlns="http://www.w3.org/2000/svg">
<path d="M33.3334 21.6667C33.3334 30.0001 27.5001 34.1667 20.5667 36.5834C20.2037 36.7064 19.8093 36.7005 19.4501 36.5667C12.5001 34.1667 6.66675 30.0001 6.66675 21.6667V10.0001C6.66675 9.55803 6.84234 9.13411 7.1549 8.82155C7.46746 8.50899 7.89139 8.33339 8.33341 8.33339C11.6667 8.33339 15.8334 6.33339 18.7334 3.80006C19.0865 3.49839 19.5357 3.33264 20.0001 3.33264C20.4645 3.33264 20.9137 3.49839 21.2667 3.80006C24.1834 6.35006 28.3334 8.33339 31.6667 8.33339C32.1088 8.33339 32.5327 8.50899 32.8453 8.82155C33.1578 9.13411 33.3334 9.55803 33.3334 10.0001V21.6667Z" stroke="#00A63E" stroke-width="3.33333" stroke-linecap="round" stroke-linejoin="round"/>
</svg>
