<svg width="13" height="13" viewBox="0 0 13 13" fill="none" xmlns="http://www.w3.org/2000/svg">
<path d="M7.58337 9.74999V3.24999C7.58337 2.96267 7.46924 2.68712 7.26607 2.48396C7.06291 2.28079 6.78736 2.16666 6.50004 2.16666H2.16671C1.87939 2.16666 1.60384 2.28079 1.40067 2.48396C1.19751 2.68712 1.08337 2.96267 1.08337 3.24999V9.20832C1.08337 9.35198 1.14044 9.48976 1.24202 9.59134C1.34361 9.69292 1.48138 9.74999 1.62504 9.74999H2.70837" stroke="#fff" stroke-width="1.08333" stroke-linecap="round" stroke-linejoin="round"/>
<path d="M8.125 9.75H4.875" stroke="#fff" stroke-width="1.08333" stroke-linecap="round" stroke-linejoin="round"/>
<path d="M10.2917 9.75001H11.375C11.5187 9.75001 11.6565 9.69294 11.7581 9.59136C11.8596 9.48978 11.9167 9.352 11.9167 9.20834V7.23126C11.9165 7.10834 11.8745 6.98914 11.7975 6.89326L9.91254 4.53701C9.86188 4.47357 9.79761 4.42233 9.72448 4.38708C9.65135 4.35182 9.57123 4.33346 9.49004 4.33334H7.58337" stroke="#fff" stroke-width="1.08333" stroke-linecap="round" stroke-linejoin="round"/>
<path d="M9.20833 10.8333C9.80664 10.8333 10.2917 10.3483 10.2917 9.74999C10.2917 9.15168 9.80664 8.66666 9.20833 8.66666C8.61002 8.66666 8.125 9.15168 8.125 9.74999C8.125 10.3483 8.61002 10.8333 9.20833 10.8333Z" stroke="#fff" stroke-width="1.08333" stroke-linecap="round" stroke-linejoin="round"/>
<path d="M3.79171 10.8333C4.39002 10.8333 4.87504 10.3483 4.87504 9.74999C4.87504 9.15168 4.39002 8.66666 3.79171 8.66666C3.1934 8.66666 2.70837 9.15168 2.70837 9.74999C2.70837 10.3483 3.1934 10.8333 3.79171 10.8333Z" stroke="#fff" stroke-width="1.08333" stroke-linecap="round" stroke-linejoin="round"/>
</svg>
