<svg width="14" height="14" viewBox="0 0 14 14" fill="none" xmlns="http://www.w3.org/2000/svg">
<g clip-path="url(#clip0_27144_3714)">
<path d="M4.66671 12.8333C4.98887 12.8333 5.25004 12.5722 5.25004 12.25C5.25004 11.9278 4.98887 11.6667 4.66671 11.6667C4.34454 11.6667 4.08337 11.9278 4.08337 12.25C4.08337 12.5722 4.34454 12.8333 4.66671 12.8333Z" stroke="#00A63E" stroke-width="1.66667" stroke-linecap="round" stroke-linejoin="round"/>
<path d="M11.0833 12.8333C11.4055 12.8333 11.6667 12.5722 11.6667 12.25C11.6667 11.9278 11.4055 11.6667 11.0833 11.6667C10.7612 11.6667 10.5 11.9278 10.5 12.25C10.5 12.5722 10.7612 12.8333 11.0833 12.8333Z" stroke="#00A63E" stroke-width="1.66667" stroke-linecap="round" stroke-linejoin="round"/>
<path d="M1.1958 1.19583H2.36247L3.91413 8.44083C3.97105 8.70617 4.11869 8.94336 4.33163 9.11158C4.54457 9.2798 4.8095 9.36853 5.0808 9.3625H10.7858C11.0513 9.36207 11.3087 9.27108 11.5156 9.10457C11.7224 8.93805 11.8662 8.70597 11.9233 8.44666L12.8858 4.1125H2.98663" stroke="#00A63E" stroke-width="1.66667" stroke-linecap="round" stroke-linejoin="round"/>
</g>
<defs>
<clipPath id="clip0_27144_3714">
<rect width="14" height="14" fill="white"/>
</clipPath>
</defs>
</svg>
