<svg width="16" height="16" viewBox="0 0 16 16" fill="none" xmlns="http://www.w3.org/2000/svg">
<mask id="mask0_13499_13006" style="mask-type:alpha" maskUnits="userSpaceOnUse" x="0" y="0" width="16" height="16">
<rect width="16" height="16" fill="#D9D9D9"/>
</mask>
<g mask="url(#mask0_13499_13006)">
<path d="M2.66797 12.6663V11.333H4.0013V6.66634C4.0013 5.74412 4.27908 4.92467 4.83464 4.20801C5.39019 3.49134 6.11241 3.0219 7.0013 2.79967V2.33301C7.0013 2.05523 7.09852 1.81912 7.29297 1.62467C7.48741 1.43023 7.72352 1.33301 8.0013 1.33301C8.27908 1.33301 8.51519 1.43023 8.70964 1.62467C8.90408 1.81912 9.0013 2.05523 9.0013 2.33301V2.79967C9.89019 3.0219 10.6124 3.49134 11.168 4.20801C11.7235 4.92467 12.0013 5.74412 12.0013 6.66634V11.333H13.3346V12.6663H2.66797ZM8.0013 14.6663C7.63463 14.6663 7.32075 14.5358 7.05964 14.2747C6.79852 14.0136 6.66797 13.6997 6.66797 13.333H9.33463C9.33463 13.6997 9.20408 14.0136 8.94297 14.2747C8.68186 14.5358 8.36797 14.6663 8.0013 14.6663Z" fill="#121212" fill-opacity="0.6"/>
</g>
</svg>
