<svg width="32" height="32" viewBox="0 0 32 32" fill="none" xmlns="http://www.w3.org/2000/svg">
<path d="M30.5 25.5H29V12.4125C29.3324 12.2937 29.6123 12.0615 29.7903 11.7567C29.9684 11.4519 30.0333 11.0941 29.9736 10.7462C29.9138 10.3983 29.7333 10.0826 29.4638 9.85465C29.1943 9.62671 28.853 9.50113 28.5 9.5H23.5V6.4125C23.8324 6.29371 24.1123 6.06149 24.2903 5.7567C24.4684 5.45192 24.5333 5.0941 24.4736 4.74619C24.4138 4.39829 24.2333 4.0826 23.9638 3.85465C23.6943 3.62671 23.353 3.50113 23 3.5H5C4.64701 3.50113 4.30572 3.62671 4.03619 3.85465C3.76666 4.0826 3.58615 4.39829 3.52643 4.74619C3.4667 5.0941 3.53158 5.45192 3.70966 5.7567C3.88774 6.06149 4.1676 6.29371 4.5 6.4125V25.5H3C2.60218 25.5 2.22064 25.658 1.93934 25.9393C1.65804 26.2206 1.5 26.6022 1.5 27C1.5 27.3978 1.65804 27.7794 1.93934 28.0607C2.22064 28.342 2.60218 28.5 3 28.5H30.5C30.8978 28.5 31.2794 28.342 31.5607 28.0607C31.842 27.7794 32 27.3978 32 27C32 26.6022 31.842 26.2206 31.5607 25.9393C31.2794 25.658 30.8978 25.5 30.5 25.5ZM26 12.5V25.5H23.5V12.5H26ZM7.5 6.5H20.5V25.5H18.5V20C18.5 19.6022 18.342 19.2206 18.0607 18.9393C17.7794 18.658 17.3978 18.5 17 18.5H11C10.6022 18.5 10.2206 18.658 9.93934 18.9393C9.65804 19.2206 9.5 19.6022 9.5 20V25.5H7.5V6.5ZM15.5 25.5H12.5V21.5H15.5V25.5ZM9 10C9 9.60218 9.15804 9.22064 9.43934 8.93934C9.72064 8.65804 10.1022 8.5 10.5 8.5H11.5C11.8978 8.5 12.2794 8.65804 12.5607 8.93934C12.842 9.22064 13 9.60218 13 10C13 10.3978 12.842 10.7794 12.5607 11.0607C12.2794 11.342 11.8978 11.5 11.5 11.5H10.5C10.1022 11.5 9.72064 11.342 9.43934 11.0607C9.15804 10.7794 9 10.3978 9 10ZM15 10C15 9.60218 15.158 9.22064 15.4393 8.93934C15.7206 8.65804 16.1022 8.5 16.5 8.5H17.5C17.8978 8.5 18.2794 8.65804 18.5607 8.93934C18.842 9.22064 19 9.60218 19 10C19 10.3978 18.842 10.7794 18.5607 11.0607C18.2794 11.342 17.8978 11.5 17.5 11.5H16.5C16.1022 11.5 15.7206 11.342 15.4393 11.0607C15.158 10.7794 15 10.3978 15 10ZM9 15C9 14.6022 9.15804 14.2206 9.43934 13.9393C9.72064 13.658 10.1022 13.5 10.5 13.5H11.5C11.8978 13.5 12.2794 13.658 12.5607 13.9393C12.842 14.2206 13 14.6022 13 15C13 15.3978 12.842 15.7794 12.5607 16.0607C12.2794 16.342 11.8978 16.5 11.5 16.5H10.5C10.1022 16.5 9.72064 16.342 9.43934 16.0607C9.15804 15.7794 9 15.3978 9 15ZM15 15C15 14.6022 15.158 14.2206 15.4393 13.9393C15.7206 13.658 16.1022 13.5 16.5 13.5H17.5C17.8978 13.5 18.2794 13.658 18.5607 13.9393C18.842 14.2206 19 14.6022 19 15C19 15.3978 18.842 15.7794 18.5607 16.0607C18.2794 16.342 17.8978 16.5 17.5 16.5H16.5C16.1022 16.5 15.7206 16.342 15.4393 16.0607C15.158 15.7794 15 15.3978 15 15Z" fill="#fff"/>
</svg>
