<svg width="32" height="32" viewBox="0 0 32 32" fill="none" xmlns="http://www.w3.org/2000/svg">
<path d="M29.75 10.3412C29.6564 10.2344 29.5411 10.1486 29.4118 10.0898C29.2825 10.0309 29.1421 10.0003 29 10H23.4538L16.75 2.34125C16.6562 2.23484 16.5408 2.14962 16.4114 2.09125C16.2821 2.03287 16.1419 2.00269 16 2.00269C15.8581 2.00269 15.7179 2.03287 15.5886 2.09125C15.4593 2.14962 15.3438 2.23484 15.25 2.34125L8.54626 10H3.00001C2.85749 9.99999 2.71661 10.0304 2.58682 10.0893C2.45704 10.1482 2.34133 10.2341 2.24747 10.3414C2.1536 10.4486 2.08374 10.5747 2.04257 10.7111C2.0014 10.8476 1.98987 10.9912 2.00876 11.1325L3.89251 25.265C3.95822 25.7446 4.19504 26.1844 4.55934 26.5032C4.92365 26.822 5.39089 26.9984 5.87501 27H26.125C26.6091 26.9984 27.0764 26.822 27.4407 26.5032C27.805 26.1844 28.0418 25.7446 28.1075 25.265L29.9913 11.1325C30.0098 10.991 29.9979 10.8472 29.9563 10.7108C29.9147 10.5743 29.8443 10.4483 29.75 10.3412ZM10.2 23C10.1663 23.0019 10.1325 23.0019 10.0988 23C9.84999 23.0012 9.60969 22.9097 9.42478 22.7433C9.23987 22.5769 9.12363 22.3475 9.09876 22.1L8.39876 15.1C8.37223 14.8361 8.45163 14.5725 8.61947 14.3671C8.78732 14.1618 9.02987 14.0315 9.29376 14.005C9.55765 13.9785 9.82126 14.0579 10.0266 14.2257C10.232 14.3936 10.3622 14.6361 10.3888 14.9L11.0888 21.9C11.1168 22.1637 11.0389 22.4278 10.8722 22.6341C10.7055 22.8403 10.4637 22.972 10.2 23ZM17 22C17 22.2652 16.8946 22.5196 16.7071 22.7071C16.5196 22.8946 16.2652 23 16 23C15.7348 23 15.4804 22.8946 15.2929 22.7071C15.1054 22.5196 15 22.2652 15 22V15C15 14.7348 15.1054 14.4804 15.2929 14.2929C15.4804 14.1054 15.7348 14 16 14C16.2652 14 16.5196 14.1054 16.7071 14.2929C16.8946 14.4804 17 14.7348 17 15V22ZM11.2038 10L16 4.51875L20.7963 10H11.2038ZM23.595 15.1L22.895 22.1C22.8702 22.3464 22.7549 22.5749 22.5713 22.7412C22.3877 22.9075 22.1489 22.9997 21.9013 23C21.8675 23.0019 21.8337 23.0019 21.8 23C21.6693 22.9869 21.5425 22.9481 21.4268 22.886C21.3112 22.8239 21.2088 22.7395 21.1257 22.6379C21.0426 22.5362 20.9803 22.4191 20.9425 22.2934C20.9046 22.1676 20.8919 22.0357 20.905 21.905L21.605 14.905C21.6315 14.6411 21.7618 14.3986 21.9671 14.2307C22.1725 14.0629 22.4361 13.9835 22.7 14.01C22.9639 14.0365 23.2064 14.1668 23.3743 14.3721C23.5421 14.5775 23.6215 14.8411 23.595 15.105V15.1Z" fill="#121212"/>
</svg>
