<svg width="12" height="12" viewBox="0 0 12 12" fill="none" xmlns="http://www.w3.org/2000/svg">
<path d="M6 0.3125C4.87512 0.3125 3.7755 0.646066 2.8402 1.27102C1.90489 1.89597 1.17591 2.78423 0.745438 3.82349C0.314964 4.86274 0.202333 6.00631 0.421786 7.10958C0.64124 8.21284 1.18292 9.22626 1.97833 10.0217C2.77374 10.8171 3.78716 11.3588 4.89043 11.5782C5.99369 11.7977 7.13726 11.685 8.17651 11.2546C9.21577 10.8241 10.104 10.0951 10.729 9.15981C11.3539 8.2245 11.6875 7.12488 11.6875 6C11.6859 4.49207 11.0862 3.04636 10.0199 1.98009C8.95365 0.913821 7.50793 0.314092 6 0.3125ZM4.55789 8.1875H7.44211C7.14844 9.19047 6.65625 10.0945 6 10.8065C5.34375 10.0945 4.85156 9.19047 4.55789 8.1875ZM4.35938 7.3125C4.21427 6.44352 4.21427 5.55648 4.35938 4.6875H7.64063C7.78573 5.55648 7.78573 6.44352 7.64063 7.3125H4.35938ZM1.1875 6C1.18712 5.55618 1.24841 5.11445 1.36961 4.6875H3.47289C3.34237 5.55763 3.34237 6.44237 3.47289 7.3125H1.36961C1.24841 6.88555 1.18712 6.44382 1.1875 6ZM7.44211 3.8125H4.55789C4.85156 2.80953 5.34375 1.90555 6 1.19352C6.65625 1.90555 7.14844 2.80953 7.44211 3.8125ZM8.52711 4.6875H10.6304C10.8732 5.54565 10.8732 6.45435 10.6304 7.3125H8.52711C8.65763 6.44237 8.65763 5.55763 8.52711 4.6875ZM10.2859 3.8125H8.34828C8.12501 2.93395 7.75006 2.10113 7.24031 1.35156C7.89156 1.52657 8.49897 1.83594 9.02349 2.25977C9.548 2.68361 9.97801 3.21252 10.2859 3.8125ZM4.75969 1.35156C4.24994 2.10113 3.87499 2.93395 3.65172 3.8125H1.71414C2.02199 3.21252 2.452 2.68361 2.97652 2.25977C3.50103 1.83594 4.10844 1.52657 4.75969 1.35156ZM1.71414 8.1875H3.65172C3.87499 9.06605 4.24994 9.89887 4.75969 10.6484C4.10844 10.4734 3.50103 10.1641 2.97652 9.74023C2.452 9.31639 2.02199 8.78748 1.71414 8.1875ZM7.24031 10.6484C7.75006 9.89887 8.12501 9.06605 8.34828 8.1875H10.2859C9.97801 8.78748 9.548 9.31639 9.02349 9.74023C8.49897 10.1641 7.89156 10.4734 7.24031 10.6484Z" fill="#121212"/>
</svg>
