<svg width="32" height="32" viewBox="0 0 32 32" fill="none" xmlns="http://www.w3.org/2000/svg">
<path d="M21.0002 28C21.0002 28.2652 20.8948 28.5196 20.7073 28.7071C20.5198 28.8946 20.2654 29 20.0002 29H12.0002C11.735 29 11.4806 28.8946 11.2931 28.7071C11.1055 28.5196 11.0002 28.2652 11.0002 28C11.0002 27.7348 11.1055 27.4804 11.2931 27.2929C11.4806 27.1054 11.735 27 12.0002 27H20.0002C20.2654 27 20.5198 27.1054 20.7073 27.2929C20.8948 27.4804 21.0002 27.7348 21.0002 28ZM28.4239 7.54001C27.3 5.34332 25.6124 3.48487 23.5339 2.15501C23.4229 2.08407 23.2989 2.03578 23.1691 2.01291C23.0393 1.99005 22.9063 1.99306 22.7777 2.02177C22.6491 2.05048 22.5274 2.10433 22.4197 2.18022C22.312 2.25611 22.2203 2.35255 22.15 2.46398C22.0796 2.57542 22.032 2.69966 22.0099 2.82956C21.9877 2.95946 21.9914 3.09246 22.0208 3.22091C22.0502 3.34937 22.1047 3.47074 22.1812 3.57806C22.2577 3.68538 22.3546 3.77652 22.4664 3.84626C24.2497 4.98063 25.6944 6.57437 26.6489 8.46001C26.7751 8.68792 26.9852 8.85763 27.2345 8.93301C27.4839 9.00839 27.7528 8.9835 27.9841 8.86362C28.2153 8.74375 28.3907 8.53836 28.4729 8.29116C28.555 8.04396 28.5375 7.77446 28.4239 7.54001ZM4.46394 9.00001C4.64714 8.99993 4.8268 8.94953 4.98331 8.8543C5.13982 8.75907 5.26716 8.62268 5.35144 8.46001C6.30594 6.57437 7.75071 4.98063 9.53394 3.84626C9.64575 3.77652 9.74268 3.68538 9.81915 3.57806C9.89563 3.47074 9.95013 3.34937 9.97954 3.22091C10.009 3.09246 10.0127 2.95946 9.99052 2.82956C9.96836 2.69966 9.92074 2.57542 9.8504 2.46398C9.78006 2.35255 9.6884 2.25611 9.58067 2.18022C9.47294 2.10433 9.35127 2.05048 9.22266 2.02177C9.09404 1.99306 8.96103 1.99005 8.83125 2.01291C8.70147 2.03578 8.57749 2.08407 8.46644 2.15501C6.38797 3.48487 4.70035 5.34332 3.57644 7.54001C3.49748 7.6924 3.45909 7.86256 3.46494 8.0341C3.47079 8.20563 3.52069 8.37278 3.60985 8.51944C3.699 8.66611 3.8244 8.78736 3.97399 8.87152C4.12357 8.95569 4.2923 8.99993 4.46394 9.00001ZM27.7264 21.9925C27.9036 22.2963 27.9975 22.6415 27.9987 22.9931C27.9999 23.3448 27.9084 23.6906 27.7333 23.9956C27.5582 24.3006 27.3058 24.5541 27.0016 24.7304C26.6973 24.9068 26.3519 24.9998 26.0002 25H6.00019C5.64871 24.9993 5.30363 24.906 4.9997 24.7295C4.69576 24.553 4.44371 24.2995 4.26894 23.9945C4.09416 23.6896 4.00283 23.344 4.00415 22.9925C4.00546 22.641 4.09938 22.2961 4.27644 21.9925C5.40269 20.0488 6.00019 17.285 6.00019 14C6.00019 11.3478 7.05376 8.8043 8.92912 6.92894C10.8045 5.05357 13.348 4.00001 16.0002 4.00001C18.6524 4.00001 21.1959 5.05357 23.0713 6.92894C24.9466 8.8043 26.0002 11.3478 26.0002 14C26.0002 17.2838 26.5977 20.0475 27.7264 21.9925ZM26.0002 23C24.6702 20.7163 24.0002 17.6888 24.0002 14C24.0002 11.8783 23.1573 9.84344 21.657 8.34315C20.1567 6.84286 18.1219 6.00001 16.0002 6.00001C13.8785 6.00001 11.8436 6.84286 10.3433 8.34315C8.84304 9.84344 8.00019 11.8783 8.00019 14C8.00019 17.69 7.32769 20.7175 6.00019 23H26.0002Z" fill="#343330"/>
</svg>
