<svg width="14" height="14" viewBox="0 0 14 14" fill="none" xmlns="http://www.w3.org/2000/svg">
<path d="M13.306 7.4375L7.875 2.00649C7.79405 1.92488 7.69768 1.86019 7.5915 1.81615C7.48531 1.77212 7.37144 1.74964 7.25649 1.75H2.1875C2.07147 1.75 1.96019 1.7961 1.87815 1.87815C1.7961 1.96019 1.75 2.07147 1.75 2.1875V7.25649C1.74964 7.37144 1.77212 7.48531 1.81615 7.5915C1.86019 7.69768 1.92488 7.79405 2.00649 7.875L7.4375 13.306C7.51876 13.3873 7.61523 13.4518 7.7214 13.4957C7.82757 13.5397 7.94137 13.5624 8.05629 13.5624C8.17122 13.5624 8.28502 13.5397 8.39119 13.4957C8.49736 13.4518 8.59383 13.3873 8.67508 13.306L13.306 8.67508C13.3873 8.59383 13.4518 8.49736 13.4957 8.39119C13.5397 8.28502 13.5624 8.17122 13.5624 8.05629C13.5624 7.94137 13.5397 7.82757 13.4957 7.7214C13.4518 7.61523 13.3873 7.51876 13.306 7.4375ZM8.05602 12.6875L2.625 7.25649V2.625H7.25649L12.6875 8.05602L8.05602 12.6875ZM5.25 4.59375C5.25 4.72355 5.21152 4.85043 5.13941 4.95835C5.0673 5.06627 4.9648 5.15038 4.84489 5.20005C4.72498 5.24972 4.59303 5.26272 4.46573 5.23739C4.33843 5.21207 4.22149 5.14957 4.12972 5.05779C4.03794 4.96602 3.97544 4.84908 3.95011 4.72178C3.92479 4.59448 3.93779 4.46253 3.98746 4.34262C4.03713 4.2227 4.12124 4.12021 4.22916 4.0481C4.33708 3.97599 4.46396 3.9375 4.59375 3.9375C4.7678 3.9375 4.93472 4.00664 5.05779 4.12972C5.18086 4.25279 5.25 4.41971 5.25 4.59375Z" fill="#FFFFFF"/>
</svg>
