<svg width="59" height="59" viewBox="0 0 59 59" fill="none" xmlns="http://www.w3.org/2000/svg">
<rect x="3" y="3" width="53" height="53" rx="26.5" fill="#FCFCFC" fill-opacity="0.6"/>
<rect x="3" y="3" width="53" height="53" rx="26.5" stroke="#F5F7FA" stroke-width="6"/>
<path d="M25.5 39.5C25.5 39.7652 25.3946 40.0196 25.2071 40.2071C25.0196 40.3947 24.7652 40.5 24.5 40.5H18.4225C17.9128 40.4993 17.4242 40.2966 17.0638 39.9362C16.7034 39.5758 16.5007 39.0872 16.5 38.5775V37.5C16.5 37.2348 16.6054 36.9804 16.7929 36.7929C16.9804 36.6054 17.2348 36.5 17.5 36.5C17.7652 36.5 18.0196 36.6054 18.2071 36.7929C18.3946 36.9804 18.5 37.2348 18.5 37.5V38.5H24.5C24.7652 38.5 25.0196 38.6054 25.2071 38.7929C25.3946 38.9804 25.5 39.2348 25.5 39.5ZM33.5 38.5H29.5C29.2348 38.5 28.9804 38.6054 28.7929 38.7929C28.6054 38.9804 28.5 39.2348 28.5 39.5C28.5 39.7652 28.6054 40.0196 28.7929 40.2071C28.9804 40.3947 29.2348 40.5 29.5 40.5H33.5C33.7652 40.5 34.0196 40.3947 34.2071 40.2071C34.3946 40.0196 34.5 39.7652 34.5 39.5C34.5 39.2348 34.3946 38.9804 34.2071 38.7929C34.0196 38.6054 33.7652 38.5 33.5 38.5ZM41.5 31.5C41.2348 31.5 40.9804 31.6054 40.7929 31.7929C40.6054 31.9804 40.5 32.2348 40.5 32.5V38.5H38.5C38.2348 38.5 37.9804 38.6054 37.7929 38.7929C37.6054 38.9804 37.5 39.2348 37.5 39.5C37.5 39.7652 37.6054 40.0196 37.7929 40.2071C37.9804 40.3947 38.2348 40.5 38.5 40.5H40.6112C41.112 40.4993 41.592 40.3001 41.9461 39.9461C42.3001 39.592 42.4993 39.112 42.5 38.6113V32.5C42.5 32.2348 42.3946 31.9804 42.2071 31.7929C42.0196 31.6054 41.7652 31.5 41.5 31.5ZM40.5 22.5H34.5C34.2348 22.5 33.9804 22.6054 33.7929 22.7929C33.6054 22.9804 33.5 23.2348 33.5 23.5C33.5 23.7652 33.6054 24.0196 33.7929 24.2071C33.9804 24.3947 34.2348 24.5 34.5 24.5H40.5V27.5C40.5 27.7652 40.6054 28.0196 40.7929 28.2071C40.9804 28.3947 41.2348 28.5 41.5 28.5C41.7652 28.5 42.0196 28.3947 42.2071 28.2071C42.3946 28.0196 42.5 27.7652 42.5 27.5V24.5C42.5 23.9696 42.2893 23.4609 41.9142 23.0858C41.5391 22.7107 41.0304 22.5 40.5 22.5ZM17.5 24.5H29.5C29.6979 24.5002 29.8914 24.4416 30.056 24.3317C30.2206 24.2219 30.3489 24.0656 30.4246 23.8828C30.5004 23.7 30.5202 23.4988 30.4815 23.3047C30.4429 23.1106 30.3475 22.9324 30.2075 22.7925L26.5 19.0863C26.315 18.8997 26.0947 18.7519 25.852 18.6512C25.6093 18.5506 25.349 18.4992 25.0863 18.5H18.5C17.9696 18.5 17.4609 18.7107 17.0858 19.0858C16.7107 19.4609 16.5 19.9696 16.5 20.5V23.5C16.5 23.7652 16.6054 24.0196 16.7929 24.2071C16.9804 24.3947 17.2348 24.5 17.5 24.5ZM17.5 33.5C17.7652 33.5 18.0196 33.3947 18.2071 33.2071C18.3946 33.0196 18.5 32.7652 18.5 32.5V28.5C18.5 28.2348 18.3946 27.9804 18.2071 27.7929C18.0196 27.6054 17.7652 27.5 17.5 27.5C17.2348 27.5 16.9804 27.6054 16.7929 27.7929C16.6054 27.9804 16.5 28.2348 16.5 28.5V32.5C16.5 32.7652 16.6054 33.0196 16.7929 33.2071C16.9804 33.3947 17.2348 33.5 17.5 33.5Z" fill="#90A4AE"/>
</svg>
